ffmpeg started on 2025-06-06 at 19:19:57
Report written to "D:\Convert\FFMetrics\reports\ssim_report-6.txt"
Log level: 32
Command line:
ffmpeg -hide_banner -nostdin -i "G:\\\xc0\xed\xe8\xec\xe5\\\xce\xed\xe3\xee\xe8\xed\xe3\xe8\\!_36_\xce\xf1\xe5\xed\xfc_2024\\DreamCast\\\xd0\xee\xed \xca\xe0\xec\xee\xed\xee\xf5\xe0\xf1\xe8 - \xcd\xe5\xe2\xec\xe5\xed\xff\xe5\xec\xfb\xe9 \xe4\xe5\xf2\xe5\xea\xf2\xe8\xe2\\\xd2\xc2-1\\[DC] Kamonohashi Ron no Kindan Suiri - 06_Telegram_HEVC.mkv" -i "G:\\\xc0\xed\xe8\xec\xe5\\\xce\xed\xe3\xee\xe8\xed\xe3\xe8\\!_36_\xce\xf1\xe5\xed\xfc_2024\\DreamCast\\\xd0\xee\xed \xca\xe0\xec\xee\xed\xee\xf5\xe0\xf1\xe8 - \xcd\xe5\xe2\xec\xe5\xed\xff\xe5\xec\xfb\xe9 \xe4\xe5\xf2\xe5\xea\xf2\xe8\xe2\\\xd2\xc2-1\\[DC] Kamonohashi Ron no Kindan Suiri - 06_Telegram.mp4" -lavfi "[0:v]settb=AVTB,setpts=PTS-STARTPTS,format=pix_fmts=yuv420p10,fps=24000/1001,scale=1920:1080:flags=bicubic[main];[1:v]settb=AVTB,setpts=PTS-STARTPTS,format=pix_fmts=yuv420p,fps=24000/1001,scale=1920:1080:flags=bicubic[ref];[main][ref]ssim=eof_action=endall:stats_file='D\\:/Convert/FFMetrics/logs/ssim_logfile-6.txt'" -f null -
Input #0, matroska,webm, from 'G:\Аниме\Онгоинги\!_36_Осень_2024\DreamCast\Рон Камонохаси - Невменяемый детектив\ТВ-1\[DC] Kamonohashi Ron no Kindan Suiri - 06_Telegram_HEVC.mkv':
  Metadata:
    COMPATIBLE_BRANDS: isomiso2avc1mp41
    MAJOR_BRAND     : isom
    MINOR_VERSION   : 512
    ENCODER         : Lavf61.7.100
  Duration: 00:23:46.73, start: -0.021000, bitrate: 735 kb/s
  Stream #0:0: Video: hevc (Main 10), yuv420p10le(tv, bt709, progressive), 1920x1080 [SAR 1:1 DAR 16:9], 23.98 fps, 23.98 tbr, 1k tbn (default)
      Metadata:
        HANDLER_NAME    : VideoHandler
        VENDOR_ID       : [0][0][0][0]
        ENCODER         : Lavc61.19.100 libx265
        BPS             : 537273
        DURATION        : 00:23:46.549708333
        NUMBER_OF_FRAMES: 34203
        NUMBER_OF_BYTES : 95805951
        _STATISTICS_WRITING_APP: mkvpropedit v66.0.0 ('Josie') 64-bit
        _STATISTICS_WRITING_DATE_UTC: 2025-06-03 14:59:41
        _STATISTICS_TAGS: BPS DURATION NUMBER_OF_FRAMES NUMBER_OF_BYTES
  Stream #0:1: Audio: aac (LC), 48000 Hz, stereo, fltp (default)
      Metadata:
        HANDLER_NAME    : SoundHandler
        VENDOR_ID       : [0][0][0][0]
        ENCODER         : Lavc61.19.100 aac
        BPS             : 193743
        DURATION        : 00:23:46.730000000
        NUMBER_OF_FRAMES: 66879
        NUMBER_OF_BYTES : 34552392
        _STATISTICS_WRITING_APP: mkvpropedit v66.0.0 ('Josie') 64-bit
        _STATISTICS_WRITING_DATE_UTC: 2025-06-03 14:59:41
        _STATISTICS_TAGS: BPS DURATION NUMBER_OF_FRAMES NUMBER_OF_BYTES
Input #1, mov,mp4,m4a,3gp,3g2,mj2, from 'G:\Аниме\Онгоинги\!_36_Осень_2024\DreamCast\Рон Камонохаси - Невменяемый детектив\ТВ-1\[DC] Kamonohashi Ron no Kindan Suiri - 06_Telegram.mp4':
  Metadata:
    major_brand     : isom
    minor_version   : 512
    compatible_brands: isomiso2avc1mp41
    encoder         : Lavf60.13.100
  Duration: 00:23:46.68, start: 0.000000, bitrate: 4118 kb/s
  Stream #1:0[0x1](und): Video: h264 (High) (avc1 / 0x31637661), yuv420p(tv, bt709, progressive), 1920x1080 [SAR 1:1 DAR 16:9], 3971 kb/s, 23.98 fps, 23.98 tbr, 24k tbn (default)
      Metadata:
        handler_name    : VideoHandler
        vendor_id       : [0][0][0][0]
        encoder         : Lavc60.27.100 libx264
  Stream #1:1[0x2](und): Audio: aac (HE-AACv2) (mp4a / 0x6134706D), 48000 Hz, stereo, fltp, 144 kb/s (default)
      Metadata:
        handler_name    : SoundHandler
        vendor_id       : [0][0][0][0]
Stream mapping:
  Stream #0:0 (hevc) -> settb:default
  Stream #1:0 (h264) -> settb:default
  ssim:default -> Stream #0:0 (wrapped_avframe)
  Stream #0:1 -> #0:1 (aac (native) -> pcm_s16le (native))
Output #0, null, to 'pipe:':
  Metadata:
    COMPATIBLE_BRANDS: isomiso2avc1mp41
    MAJOR_BRAND     : isom
    MINOR_VERSION   : 512
    encoder         : Lavf61.7.100
  Stream #0:0: Video: wrapped_avframe, yuv420p10le(tv, bt709, progressive), 1920x1080 [SAR 1:1 DAR 16:9], q=2-31, 200 kb/s, 23.98 fps, 23.98 tbn
      Metadata:
        encoder         : Lavc61.19.100 wrapped_avframe
  Stream #0:1: Audio: pcm_s16le, 48000 Hz, stereo, s16, 1536 kb/s (default)
      Metadata:
        HANDLER_NAME    : SoundHandler
        VENDOR_ID       : [0][0][0][0]
        _STATISTICS_TAGS: BPS DURATION NUMBER_OF_FRAMES NUMBER_OF_BYTES
        BPS             : 193743
        DURATION        : 00:23:46.730000000
        NUMBER_OF_FRAMES: 66879
        NUMBER_OF_BYTES : 34552392
        _STATISTICS_WRITING_APP: mkvpropedit v66.0.0 ('Josie') 64-bit
        _STATISTICS_WRITING_DATE_UTC: 2025-06-03 14:59:41
        encoder         : Lavc61.19.100 pcm_s16le
frame=  168 fps=0.0 q=-0.0 size=N/A time=00:00:07.00 bitrate=N/A speed=13.4x    frame=  448 fps=430 q=-0.0 size=N/A time=00:00:18.68 bitrate=N/A speed=17.9x    frame=  719 fps=459 q=-0.0 size=N/A time=00:00:29.98 bitrate=N/A speed=19.1x    frame=  950 fps=456 q=-0.0 size=N/A time=00:00:39.62 bitrate=N/A speed=  19x    frame= 1204 fps=464 q=-0.0 size=N/A time=00:00:50.21 bitrate=N/A speed=19.4x    frame= 1455 fps=467 q=-0.0 size=N/A time=00:01:00.68 bitrate=N/A speed=19.5x    frame= 1686 fps=465 q=-0.0 size=N/A time=00:01:10.36 bitrate=N/A speed=19.4x    frame= 1944 fps=469 q=-0.0 size=N/A time=00:01:21.08 bitrate=N/A speed=19.6x    frame= 2173 fps=467 q=-0.0 size=N/A time=00:01:30.63 bitrate=N/A speed=19.5x    frame= 2417 fps=467 q=-0.0 size=N/A time=00:01:40.80 bitrate=N/A speed=19.5x    frame= 2613 fps=459 q=-0.0 size=N/A time=00:01:48.98 bitrate=N/A speed=19.2x    frame= 2878 fps=463 q=-0.0 size=N/A time=00:02:00.03 bitrate=N/A speed=19.3x    frame= 3136 fps=466 q=-0.0 size=N/A time=00:02:10.79 bitrate=N/A speed=19.5x    frame= 3389 fps=468 q=-0.0 size=N/A time=00:02:21.34 bitrate=N/A speed=19.5x    frame= 3649 fps=471 q=-0.0 size=N/A time=00:02:32.19 bitrate=N/A speed=19.6x    frame= 3919 fps=474 q=-0.0 size=N/A time=00:02:43.45 bitrate=N/A speed=19.8x    frame= 4195 fps=477 q=-0.0 size=N/A time=00:02:54.96 bitrate=N/A speed=19.9x    frame= 4469 fps=480 q=-0.0 size=N/A time=00:03:06.39 bitrate=N/A speed=  20x    frame= 4752 fps=484 q=-0.0 size=N/A time=00:03:18.19 bitrate=N/A speed=20.2x    frame= 5027 fps=487 q=-0.0 size=N/A time=00:03:29.66 bitrate=N/A speed=20.3x    frame= 5291 fps=488 q=-0.0 size=N/A time=00:03:40.67 bitrate=N/A speed=20.3x    frame= 5579 fps=491 q=-0.0 size=N/A time=00:03:52.69 bitrate=N/A speed=20.5x    frame= 5871 fps=493 q=-0.0 size=N/A time=00:04:04.86 bitrate=N/A speed=20.6x    frame= 6146 fps=495 q=-0.0 size=N/A time=00:04:16.33 bitrate=N/A speed=20.7x    frame= 6407 fps=495 q=-0.0 size=N/A time=00:04:27.22 bitrate=N/A speed=20.7x    frame= 6673 fps=496 q=-0.0 size=N/A time=00:04:38.31 bitrate=N/A speed=20.7x    frame= 6924 fps=496 q=-0.0 size=N/A time=00:04:48.78 bitrate=N/A speed=20.7x    frame= 7174 fps=496 q=-0.0 size=N/A time=00:04:59.21 bitrate=N/A speed=20.7x    frame= 7444 fps=497 q=-0.0 size=N/A time=00:05:10.47 bitrate=N/A speed=20.7x    frame= 7718 fps=498 q=-0.0 size=N/A time=00:05:21.90 bitrate=N/A speed=20.8x    frame= 7990 fps=499 q=-0.0 size=N/A time=00:05:33.24 bitrate=N/A speed=20.8x    frame= 8261 fps=500 q=-0.0 size=N/A time=00:05:44.55 bitrate=N/A speed=20.8x    frame= 8505 fps=499 q=-0.0 size=N/A time=00:05:54.72 bitrate=N/A speed=20.8x    frame= 8763 fps=499 q=-0.0 size=N/A time=00:06:05.49 bitrate=N/A speed=20.8x    frame= 9048 fps=500 q=-0.0 size=N/A time=00:06:17.37 bitrate=N/A speed=20.9x    frame= 9322 fps=501 q=-0.0 size=N/A time=00:06:28.80 bitrate=N/A speed=20.9x    frame= 9600 fps=502 q=-0.0 size=N/A time=00:06:40.40 bitrate=N/A speed=20.9x    frame= 9861 fps=502 q=-0.0 size=N/A time=00:06:51.28 bitrate=N/A speed=20.9x    frame=10107 fps=501 q=-0.0 size=N/A time=00:07:01.54 bitrate=N/A speed=20.9x    frame=10359 fps=501 q=-0.0 size=N/A time=00:07:12.05 bitrate=N/A speed=20.9x    frame=10630 fps=502 q=-0.0 size=N/A time=00:07:23.35 bitrate=N/A speed=20.9x    frame=10876 fps=501 q=-0.0 size=N/A time=00:07:33.61 bitrate=N/A speed=20.9x    frame=11153 fps=502 q=-0.0 size=N/A time=00:07:45.17 bitrate=N/A speed=20.9x    frame=11401 fps=502 q=-0.0 size=N/A time=00:07:55.51 bitrate=N/A speed=20.9x    frame=11668 fps=502 q=-0.0 size=N/A time=00:08:06.65 bitrate=N/A speed=20.9x    frame=11915 fps=501 q=-0.0 size=N/A time=00:08:16.95 bitrate=N/A speed=20.9x    frame=12178 fps=501 q=-0.0 size=N/A time=00:08:27.92 bitrate=N/A speed=20.9x    frame=12454 fps=502 q=-0.0 size=N/A time=00:08:39.43 bitrate=N/A speed=20.9x    frame=12728 fps=503 q=-0.0 size=N/A time=00:08:50.86 bitrate=N/A speed=  21x    frame=12997 fps=503 q=-0.0 size=N/A time=00:09:02.08 bitrate=N/A speed=  21x    frame=13287 fps=504 q=-0.0 size=N/A time=00:09:14.17 bitrate=N/A speed=  21x    frame=13562 fps=505 q=-0.0 size=N/A time=00:09:25.64 bitrate=N/A speed=21.1x    frame=13840 fps=506 q=-0.0 size=N/A time=00:09:37.24 bitrate=N/A speed=21.1x    frame=14121 fps=506 q=-0.0 size=N/A time=00:09:48.96 bitrate=N/A speed=21.1x    frame=14404 fps=507 q=-0.0 size=N/A time=00:10:00.76 bitrate=N/A speed=21.1x    frame=14700 fps=508 q=-0.0 size=N/A time=00:10:13.11 bitrate=N/A speed=21.2x    frame=14980 fps=509 q=-0.0 size=N/A time=00:10:24.79 bitrate=N/A speed=21.2x    frame=15254 fps=509 q=-0.0 size=N/A time=00:10:36.21 bitrate=N/A speed=21.2x    frame=15554 fps=510 q=-0.0 size=N/A time=00:10:48.73 bitrate=N/A speed=21.3x    frame=15828 fps=511 q=-0.0 size=N/A time=00:11:00.15 bitrate=N/A speed=21.3x    frame=16088 fps=511 q=-0.0 size=N/A time=00:11:11.00 bitrate=N/A speed=21.3x    frame=16362 fps=511 q=-0.0 size=N/A time=00:11:22.43 bitrate=N/A speed=21.3x    frame=16637 fps=511 q=-0.0 size=N/A time=00:11:33.90 bitrate=N/A speed=21.3x    frame=16914 fps=512 q=-0.0 size=N/A time=00:11:45.45 bitrate=N/A speed=21.3x    frame=17184 fps=512 q=-0.0 size=N/A time=00:11:56.71 bitrate=N/A speed=21.4x    frame=17432 fps=512 q=-0.0 size=N/A time=00:12:07.05 bitrate=N/A speed=21.3x    frame=17693 fps=511 q=-0.0 size=N/A time=00:12:17.94 bitrate=N/A speed=21.3x    frame=17966 fps=512 q=-0.0 size=N/A time=00:12:29.33 bitrate=N/A speed=21.3x    frame=18202 fps=511 q=-0.0 size=N/A time=00:12:39.17 bitrate=N/A speed=21.3x    frame=18432 fps=510 q=-0.0 size=N/A time=00:12:48.76 bitrate=N/A speed=21.3x    frame=18690 fps=510 q=-0.0 size=N/A time=00:12:59.52 bitrate=N/A speed=21.3x    frame=18945 fps=510 q=-0.0 size=N/A time=00:13:10.16 bitrate=N/A speed=21.3x    frame=19232 fps=510 q=-0.0 size=N/A time=00:13:22.13 bitrate=N/A speed=21.3x    frame=19479 fps=510 q=-0.0 size=N/A time=00:13:32.43 bitrate=N/A speed=21.3x    frame=19736 fps=510 q=-0.0 size=N/A time=00:13:43.15 bitrate=N/A speed=21.3x    frame=20020 fps=510 q=-0.0 size=N/A time=00:13:55.00 bitrate=N/A speed=21.3x    frame=20298 fps=511 q=-0.0 size=N/A time=00:14:06.59 bitrate=N/A speed=21.3x    frame=20557 fps=510 q=-0.0 size=N/A time=00:14:17.39 bitrate=N/A speed=21.3x    frame=20815 fps=510 q=-0.0 size=N/A time=00:14:28.15 bitrate=N/A speed=21.3x    frame=21072 fps=510 q=-0.0 size=N/A time=00:14:38.87 bitrate=N/A speed=21.3x    frame=21332 fps=510 q=-0.0 size=N/A time=00:14:49.72 bitrate=N/A speed=21.3x    frame=21603 fps=510 q=-0.0 size=N/A time=00:15:01.02 bitrate=N/A speed=21.3x    frame=21876 fps=510 q=-0.0 size=N/A time=00:15:12.41 bitrate=N/A speed=21.3x    frame=22135 fps=510 q=-0.0 size=N/A time=00:15:23.21 bitrate=N/A speed=21.3x    frame=22385 fps=510 q=-0.0 size=N/A time=00:15:33.64 bitrate=N/A speed=21.3x    frame=22650 fps=510 q=-0.0 size=N/A time=00:15:44.69 bitrate=N/A speed=21.3x    frame=22920 fps=510 q=-0.0 size=N/A time=00:15:55.95 bitrate=N/A speed=21.3x    frame=23200 fps=511 q=-0.0 size=N/A time=00:16:07.63 bitrate=N/A speed=21.3x    frame=23478 fps=511 q=-0.0 size=N/A time=00:16:19.22 bitrate=N/A speed=21.3x    frame=23742 fps=511 q=-0.0 size=N/A time=00:16:30.23 bitrate=N/A speed=21.3x    frame=24012 fps=511 q=-0.0 size=N/A time=00:16:41.50 bitrate=N/A speed=21.3x    frame=24237 fps=510 q=-0.0 size=N/A time=00:16:50.88 bitrate=N/A speed=21.3x    frame=24516 fps=511 q=-0.0 size=N/A time=00:17:02.52 bitrate=N/A speed=21.3x    frame=24758 fps=510 q=-0.0 size=N/A time=00:17:12.61 bitrate=N/A speed=21.3x    frame=25016 fps=510 q=-0.0 size=N/A time=00:17:23.37 bitrate=N/A speed=21.3x    frame=25276 fps=510 q=-0.0 size=N/A time=00:17:34.21 bitrate=N/A speed=21.3x    frame=25495 fps=509 q=-0.0 size=N/A time=00:17:43.35 bitrate=N/A speed=21.2x    frame=25758 fps=509 q=-0.0 size=N/A time=00:17:54.32 bitrate=N/A speed=21.2x    frame=26022 fps=509 q=-0.0 size=N/A time=00:18:05.33 bitrate=N/A speed=21.2x    frame=26306 fps=510 q=-0.0 size=N/A time=00:18:17.17 bitrate=N/A speed=21.3x    frame=26557 fps=509 q=-0.0 size=N/A time=00:18:27.64 bitrate=N/A speed=21.2x    frame=26812 fps=509 q=-0.0 size=N/A time=00:18:38.28 bitrate=N/A speed=21.2x    frame=27099 fps=510 q=-0.0 size=N/A time=00:18:50.25 bitrate=N/A speed=21.3x    frame=27396 fps=510 q=-0.0 size=N/A time=00:19:02.64 bitrate=N/A speed=21.3x    frame=27673 fps=511 q=-0.0 size=N/A time=00:19:14.19 bitrate=N/A speed=21.3x    frame=27954 fps=511 q=-0.0 size=N/A time=00:19:25.91 bitrate=N/A speed=21.3x    frame=28220 fps=511 q=-0.0 size=N/A time=00:19:37.00 bitrate=N/A speed=21.3x    frame=28492 fps=511 q=-0.0 size=N/A time=00:19:48.35 bitrate=N/A speed=21.3x    frame=28781 fps=511 q=-0.0 size=N/A time=00:20:00.40 bitrate=N/A speed=21.3x    frame=29059 fps=512 q=-0.0 size=N/A time=00:20:12.00 bitrate=N/A speed=21.3x    frame=29305 fps=511 q=-0.0 size=N/A time=00:20:22.26 bitrate=N/A speed=21.3x    frame=29531 fps=511 q=-0.0 size=N/A time=00:20:31.68 bitrate=N/A speed=21.3x    frame=29817 fps=511 q=-0.0 size=N/A time=00:20:43.61 bitrate=N/A speed=21.3x    frame=30105 fps=512 q=-0.0 size=N/A time=00:20:55.62 bitrate=N/A speed=21.3x    frame=30393 fps=512 q=-0.0 size=N/A time=00:21:07.64 bitrate=N/A speed=21.4x    frame=30685 fps=512 q=-0.0 size=N/A time=00:21:19.82 bitrate=N/A speed=21.4x    frame=30964 fps=513 q=-0.0 size=N/A time=00:21:31.45 bitrate=N/A speed=21.4x    frame=31240 fps=513 q=-0.0 size=N/A time=00:21:42.96 bitrate=N/A speed=21.4x    frame=31526 fps=513 q=-0.0 size=N/A time=00:21:54.89 bitrate=N/A speed=21.4x    frame=31782 fps=513 q=-0.0 size=N/A time=00:22:05.61 bitrate=N/A speed=21.4x    frame=32036 fps=513 q=-0.0 size=N/A time=00:22:16.16 bitrate=N/A speed=21.4x    frame=32299 fps=513 q=-0.0 size=N/A time=00:22:27.13 bitrate=N/A speed=21.4x    frame=32573 fps=513 q=-0.0 size=N/A time=00:22:38.56 bitrate=N/A speed=21.4x    frame=32838 fps=513 q=-0.0 size=N/A time=00:22:49.61 bitrate=N/A speed=21.4x    frame=33133 fps=514 q=-0.0 size=N/A time=00:23:01.92 bitrate=N/A speed=21.4x    frame=33423 fps=514 q=-0.0 size=N/A time=00:23:14.01 bitrate=N/A speed=21.4x    frame=33714 fps=514 q=-0.0 size=N/A time=00:23:26.15 bitrate=N/A speed=21.5x    frame=33978 fps=514 q=-0.0 size=N/A time=00:23:37.16 bitrate=N/A speed=21.4x    [Parsed_ssim_10 @ 000001ae8bd602c0] SSIM Y:0.995141 (23.134786) U:0.993988 (22.209758) V:0.994813 (22.850792) All:0.994894 (22.919477)
[out#0/null @ 000001ae8bba5780] video:14697KiB audio:267516KiB subtitle:0KiB other streams:0KiB global headers:0KiB muxing overhead: unknown
frame=34203 fps=515 q=-0.0 Lsize=N/A time=00:23:46.55 bitrate=N/A speed=21.5x    
